<svg width="56" height="30" viewBox="0 0 56 30" xmlns="http://www.w3.org/2000/svg"><title>cogs</title><g fill="none" fill-rule="evenodd"><path d="M54.817 16.953a19.033 19.033 0 0 0-2.565-.916 11.92 11.92 0 0 0 0-2.173 19.037 19.037 0 0 0 2.565-.918c.162-.072.304-.181.415-.32a15.1 15.1 0 0 0-.797-3.036 1.07 1.07 0 0 0-.546-.073c-.905.098-1.801.262-2.682.488a11.762 11.762 0 0 0-1.09-1.875c.64-.651 1.23-1.347 1.77-2.082.105-.145.173-.314.198-.491a14.738 14.738 0 0 0-2.207-2.23 1.07 1.07 0 0 0-.511.21 19.049 19.049 0 0 0-2.082 1.768c-.59-.42-1.218-.785-1.876-1.09.227-.88.39-1.777.489-2.681.022-.18 0-.36-.066-.529a15.1 15.1 0 0 0-1.557-.512 14.097 14.097 0 0 0-1.468-.316 1.07 1.07 0 0 0-.338.435 19.04 19.04 0 0 0-.902 2.567 11.92 11.92 0 0 0-2.174 0c-.243-.875-.55-1.73-.916-2.561a1.089 1.089 0 0 0-.321-.42 15.1 15.1 0 0 0-1.6.327c-.488.132-.965.286-1.43.46a1.07 1.07 0 0 0-.074.547c.098.898.26 1.789.485 2.664-.662.304-1.295.668-1.89 1.089a19.017 19.017 0 0 0-2.064-1.75 1.089 1.089 0 0 0-.49-.2 14.738 14.738 0 0 0-2.23 2.207c.024.187.096.363.21.512a19.001 19.001 0 0 0 1.742 2.056A11.766 11.766 0 0 0 29.712 10a18.991 18.991 0 0 0-2.642-.478c-.18-.023-.36 0-.529.065a15.1 15.1 0 0 0-.515 1.552c-.132.488-.237.978-.315 1.468.113.149.263.265.435.338.818.36 1.66.663 2.52.906a11.92 11.92 0 0 0 0 2.197c-.86.242-1.7.544-2.518.904-.166.07-.311.181-.423.322a15.1 15.1 0 0 0 .33 1.6c.132.488.285.965.46 1.43.173.071.361.097.547.073a18.96 18.96 0 0 0 2.626-.475c.308.67.679 1.31 1.107 1.912a18.966 18.966 0 0 0-1.725 2.038 1.089 1.089 0 0 0-.198.49 14.738 14.738 0 0 0 2.207 2.23 1.07 1.07 0 0 0 .51-.209 18.97 18.97 0 0 0 2.027-1.728c.6.426 1.237.795 1.905 1.102-.22.864-.378 1.741-.475 2.627-.022.179 0 .36.066.528.51.2 1.03.37 1.558.513.488.132.978.238 1.468.316a1.07 1.07 0 0 0 .337-.435c.36-.818.663-1.66.904-2.52.731.068 1.467.068 2.198 0 .242.861.545 1.704.906 2.522.07.165.181.31.322.423a15.1 15.1 0 0 0 3.035-.797 1.07 1.07 0 0 0 .074-.546 18.99 18.99 0 0 0-.479-2.643 11.766 11.766 0 0 0 1.891-1.102c.644.629 1.331 1.21 2.057 1.742.145.106.313.174.49.199a14.738 14.738 0 0 0 2.23-2.207 1.07 1.07 0 0 0-.209-.511 19.015 19.015 0 0 0-1.75-2.064c.42-.595.785-1.227 1.088-1.89a19.02 19.02 0 0 0 2.665.485c.179.022.36 0 .528-.065.2-.51.37-1.03.513-1.558.132-.489.237-.978.316-1.468a1.07 1.07 0 0 0-.437-.334zm-14.337 3.13a5.132 5.132 0 1 1 0-10.264 5.132 5.132 0 0 1 0 10.263z" fill="#F79E1B"/><path d="M29.825 13.387a1.07 1.07 0 0 0-.508-.213c-.901-.139-1.81-.213-2.722-.222a11.766 11.766 0 0 0-.557-2.096 19.043 19.043 0 0 0 2.243-1.552c.143-.11.255-.255.328-.42a15.1 15.1 0 0 0-.739-1.463 13.938 13.938 0 0 0-.818-1.262 1.07 1.07 0 0 0-.547.07c-.848.329-1.672.719-2.465 1.166a11.92 11.92 0 0 0-1.534-1.538c.446-.791.835-1.613 1.164-2.46.068-.166.093-.347.074-.526a15.1 15.1 0 0 0-2.71-1.584 1.07 1.07 0 0 0-.44.334 19.02 19.02 0 0 0-1.541 2.225 11.762 11.762 0 0 0-2.106-.566 19.017 19.017 0 0 0-.22-2.696 1.089 1.089 0 0 0-.2-.493 14.791 14.791 0 0 0-3.14-.016 1.07 1.07 0 0 0-.21.51 19.001 19.001 0 0 0-.223 2.685c-.722.12-1.431.307-2.118.558a18.991 18.991 0 0 0-1.53-2.207 1.089 1.089 0 0 0-.42-.326A15.1 15.1 0 0 0 6.16 2.85c-.025.185 0 .373.07.546.323.834.704 1.644 1.142 2.424a11.92 11.92 0 0 0-1.556 1.552 18.98 18.98 0 0 0-2.42-1.143 1.089 1.089 0 0 0-.526-.07 15.1 15.1 0 0 0-.898 1.374c-.254.437-.482.882-.684 1.335.071.173.187.324.334.439a18.968 18.968 0 0 0 2.186 1.522 11.76 11.76 0 0 0-.569 2.126 18.97 18.97 0 0 0-2.654.22 1.089 1.089 0 0 0-.493.199 14.791 14.791 0 0 0-.016 3.14c.149.113.324.186.51.212.88.136 1.768.21 2.66.222.122.725.312 1.437.568 2.126-.764.455-1.494.964-2.186 1.522-.141.11-.253.254-.326.419a14.879 14.879 0 0 0 1.554 2.726c.185.025.373 0 .546-.07a18.977 18.977 0 0 0 2.42-1.142c.47.564.99 1.083 1.556 1.551-.438.78-.82 1.59-1.143 2.424a1.089 1.089 0 0 0-.073.527 15.1 15.1 0 0 0 2.71 1.583 1.07 1.07 0 0 0 .439-.334 18.987 18.987 0 0 0 1.53-2.207c.685.249 1.392.433 2.112.55a19 19 0 0 0 .222 2.687c.025.178.093.347.199.492a14.791 14.791 0 0 0 3.137.016 1.07 1.07 0 0 0 .213-.508c.138-.89.214-1.787.226-2.686a11.76 11.76 0 0 0 2.106-.567c.46.778.976 1.523 1.542 2.227.11.142.254.254.419.326a14.879 14.879 0 0 0 2.726-1.554 1.07 1.07 0 0 0-.07-.546 19.033 19.033 0 0 0-1.164-2.47 11.92 11.92 0 0 0 1.534-1.537 19.04 19.04 0 0 0 2.461 1.164c.167.068.348.093.527.074a15.1 15.1 0 0 0 1.583-2.71 1.07 1.07 0 0 0-.334-.44c-.71-.57-1.459-1.088-2.243-1.55.25-.681.436-1.383.557-2.097a19.047 19.047 0 0 0 2.722-.222c.178-.025.347-.093.492-.2a15.1 15.1 0 0 0 .018-3.134zM14.95 20.082a5.132 5.132 0 1 1 0-10.263 5.132 5.132 0 0 1 0 10.263z" fill="#EB001B"/></g></svg>